<?xml version="1.0" encoding="utf-8"?>
<!-- Generator: Adobe Illustrator 22.0.1, SVG Export Plug-In . SVG Version: 6.00 Build 0)  -->
<svg version="1.1" id="Layer_1" xmlns="http://www.w3.org/2000/svg" xmlns:xlink="http://www.w3.org/1999/xlink" x="0px" y="0px"
	 viewBox="0 0 340.2 73.7" style="enable-background:new 0 0 340.2 73.7;" xml:space="preserve">
<style type="text/css">
	.st0{fill:#FF790F;}
</style>
<g>
	<path class="st0" d="M33.6,17.2c0.1-1.3-0.2-2.5-0.8-3.6c-1-1.7-2.9-2.8-5.1-2.8c-2.7,0-5.1,1.6-6.3,3.9c-0.4,0.8-0.6,1.6-0.7,2.5
		L20,25c0,0,2.7,0.1,3.9,0.1C33.6,25.1,33.6,17.2,33.6,17.2z"/>
	<path class="st0" d="M47.7,30.2c-0.8-0.4-1.6-0.6-2.6-0.6h-38c-1.4,0-2.6,0.4-3.7,1.1c-1.8,1.1-3.1,3.1-3.3,5.3
		c-0.2,2.6,1.2,4.9,3.4,5.9c0.7,0.3,1.6,0.5,2.5,0.5h12.6l-1.1,12.3c-0.1,0.9,0,1.7,0.3,2.5c0.8,2.3,2.9,3.9,5.6,3.9
		c2.6,0,5-1.5,6.2-3.7c0.4-0.8,0.7-1.7,0.8-2.6l1.1-12.3h12.5c0.9,0,1.8-0.2,2.6-0.5c2.4-1,4.2-3.2,4.5-5.9
		C51.2,33.4,49.8,31.2,47.7,30.2"/>
	<path class="st0" d="M94.8,59.5c-2.6,1.6-5.9,2.4-9.9,2.4H69.6l1.7-18.8h15.9c4.2,0,7.5,0.3,9.4,1.9c2,1.8,2.7,3.9,2.5,6.8
		C98.7,55.5,97.3,58,94.8,59.5 M74,11.7h12c3.2,0,5.7,0.8,7.6,2.4c1.8,1.5,2.6,3.7,2.4,6.6c-0.3,3.4-1.5,5.9-3.5,7.4
		c-2.1,1.6-4.6,2.3-7.5,2.3H72.4L74,11.7z M101.3,34.6c5.3-3.1,8.3-8.2,8.9-15.3c0.5-6.2-1.3-11.1-5.6-14.4C100.4,1.6,95.2,0,89.1,0
		C89.1,0,69,0,69,0c-1.4,0-2.7,0.4-3.8,1.1c-0.7,0.4-1.3,1-1.8,1.6c-1,1.2-1.6,2.5-1.8,4l-5.3,60.2c-0.1,1.6,0.3,3.1,1.3,4.3
		c0.4,0.5,0.8,1,1.3,1.3c1,0.7,2.2,1.1,3.6,1.1c0,0,23.9,0,23.9,0c6.8,0,12.8-1.7,17.9-5.1c5.2-3.5,8.2-8.6,8.8-15.2
		c0.4-5-0.5-9.3-2.9-12.7C108.2,37.9,105.2,35.8,101.3,34.6"/>
	<path class="st0" d="M145.7,61.5c-2.9,1.5-5.8,2.2-8.6,2.2c-2.4,0-4.5-0.5-6-1.5c-1.4-0.9-2.1-2.2-1.9-4c0.4-4.8,9.5-6.5,17.5-7
		L145.7,61.5z M142.4,22.5c-4.8,0-9.5,0.9-14.2,2.7c-4.3,1.7-6.6,3.8-6.8,6.4c-0.1,1.4,0.3,2.6,1.1,3.5c0.9,0.9,2,1.4,3.4,1.4
		c0.6,0,1.9-0.2,5.7-1.7c3-1.2,5.9-1.9,8.6-1.9c2.8,0,4.8,0.8,6,2.3c1,1.4,1.4,3.5,1.2,6.3l0,0.3c-9,0.8-15.5,2-19.8,3.6
		c-6.8,2.6-10.5,7-11.1,13.1c-0.4,4.7,1,8.5,4.2,11.2c3.2,2.7,7.2,4,12,4c4.9,0,9.3-0.9,13.1-2.6c1,1.7,2.8,2.6,5.1,2.6
		c1.7,0,3.3-0.6,4.7-1.8c1.4-1.2,2.1-2.7,2.3-4.4l2.3-25.9c0.5-5.7-0.5-10.2-3.1-13.3C154.2,24.4,149.2,22.5,142.4,22.5"/>
	<path class="st0" d="M195.9,57.6c-3.1,3.4-7.4,5.1-13,5.1c-2.3,0-4.2-0.1-5.7-0.2l2.4-27.1c2.7-1.2,5.6-1.8,8.5-1.8
		c3.7,0,6.6,1.2,8.8,3.7c2.3,2.7,3.2,6.3,2.8,10.7C199.4,51.9,198.1,55.1,195.9,57.6 M191.2,22.5c-3.6,0-7.2,0.6-10.7,1.8l1.6-17.9
		c0.1-1-0.1-1.8-0.4-2.6c-0.8-2.2-2.9-3.7-5.5-3.7c-2.2,0-4.3,1.1-5.6,2.8c-0.8,1-1.3,2.2-1.4,3.5L164,65.6
		c-0.3,3.9,1.4,6.4,5.2,7.2c2.9,0.6,6.9,0.8,11.8,0.8c10.5,0,18.7-2.9,24.4-8.7c4.3-4.3,6.8-10,7.4-16.8c0.7-7.7-0.9-13.9-4.8-18.5
		C204,24.9,198.4,22.5,191.2,22.5"/>
	<path class="st0" d="M248.5,57.6c-3.1,3.4-7.4,5.1-13,5.1c-2.3,0-4.2-0.1-5.7-0.2l2.4-27.1c2.7-1.2,5.6-1.8,8.5-1.8
		c3.7,0,6.6,1.2,8.8,3.7c2.3,2.7,3.2,6.3,2.8,10.7C252,51.9,250.7,55.1,248.5,57.6 M243.9,22.5c-3.6,0-7.2,0.6-10.7,1.8l1.6-17.9
		c0.1-0.9,0-1.8-0.3-2.6c-0.8-2.2-2.9-3.7-5.5-3.7c-2.2,0-4.3,1.1-5.6,2.8c-0.8,1-1.3,2.2-1.4,3.5l-5.3,59.3
		c-0.4,3.9,1.4,6.4,5.2,7.2c2.9,0.6,6.9,0.8,11.8,0.8c10.5,0,18.7-2.9,24.4-8.7c4.3-4.3,6.8-10,7.4-16.8c0.7-7.7-0.9-13.9-4.8-18.5
		C256.6,24.9,251,22.5,243.9,22.5"/>
	<path class="st0" d="M283.2,42.6c0.6-2.4,1.7-4.5,3.3-6.2c2.3-2.3,5.3-3.4,9.2-3.4c3.5,0,6.1,1,7.9,3.2c1.4,1.8,2.1,3.9,2.1,6.4
		H283.2z M296.5,22.5c-7.6,0-14,2.4-18.9,7c-5,4.7-7.9,10.7-8.5,17.9c-0.7,7.6,1.1,13.9,5.2,18.6c4.3,5,10.7,7.6,19,7.6
		c5.4,0,10.4-1,15.1-2.9c3.8-1.6,5.9-3.7,6.1-6.2c0.1-1.4-0.2-2.7-1.1-3.8c-1.1-1.4-2.7-2-4.9-1.5c-0.5,0.1-1,0.3-1.4,0.5
		c-0.3,0.2-0.7,0.4-1.3,0.6c-0.6,0.3-1.1,0.5-1.6,0.7c-3,1.3-6.1,2-9.3,2c-4.5,0-7.8-1.4-10.1-4.3c-1.5-1.8-2.3-4.1-2.5-6.8h28.7
		c2,0,3.7-0.7,5-2c1.3-1.3,2-3,2.2-4.9c0.6-6.3-1-11.6-4.7-15.8C309.5,24.8,303.7,22.5,296.5,22.5"/>
	<path class="st0" d="M340.1,6.3c0.1-1.3-0.2-2.5-0.8-3.5c-1-1.7-2.9-2.8-5.1-2.8c-2.7,0-5.1,1.6-6.3,3.9c-0.4,0.8-0.6,1.6-0.7,2.5
		l-5.4,61c-0.1,0.9,0,1.7,0.3,2.5c0.8,2.3,2.9,3.9,5.6,3.9c2.6,0,5-1.5,6.2-3.7c0.4-0.8,0.7-1.7,0.8-2.6L340.1,6.3z"/>
</g>
</svg>
