<?xml version="1.0"?>
<svg xmlns="http://www.w3.org/2000/svg" id="Templates" viewBox="0 0 100 100">
  <defs>
    <style>.cls-1{fill:#27b45a;}.cls-2{fill:#fcc93a;}.cls-3{fill:#353bd8;}.cls-4{fill:#fff;}.cls-5{fill:#f7fafd;}.cls-6{fill:#394149;}.cls-7{fill:#ececf3;}</style>
  </defs>
  <title>Babbel_GraphicsMaster_2017</title>
  <path class="cls-1" d="M89.16,47.21A39.26,39.26,0,0,0,10.9,46.4c-.11,1.18-.17,2.38-.17,3.6a40.55,40.55,0,0,0,.35,5.2A39.26,39.26,0,0,0,88.94,55h0a39.56,39.56,0,0,0,.33-5C89.27,49.06,89.23,48.13,89.16,47.21Z"/>
  <polygon class="cls-2" points="85.57 50.47 49.6 80.21 13.84 50.64 49.81 20.89 85.57 50.47"/>
  <path class="cls-3" d="M35.42,44.39c1.69-.24,17.78-2.13,29.53,9a14.83,14.83,0,0,0,.23-2.51,15.56,15.56,0,0,0-29.76-6.45Z"/>
  <path class="cls-3" d="M34.52,47a15.56,15.56,0,0,0,29.8,8.86C63.13,54.66,52.89,45,34.52,47Zm5.55,9.56-1-.79-1,.78.4-1.27-1-.79h1.27l.4-1.27.39,1.27h1.27l-1,.78Zm2.43,1.77-.83.63.32-1-.83-.64h1l.32-1,.32,1h1l-.84.63.32,1Zm4.33,5.14-1.28-1-1.3,1,.51-1.55-1.3-1h1.6l.5-1.55L46.05,61h1.59l-1.3,1Zm1-5.88L47.05,57l-.8.61.31-1-.8-.61h1l.31-1,.3,1h1l-.8.61Zm5.1,4.6-1-.76-1,.75L51.32,61l-1-.76h1.23L52,59l.38,1.21h1.23l-1,.75Zm1.79-8.76-.82-.62-.82.61.31-1-.81-.62h1l.32-1,.31,1h1l-.83.61Zm7,4.81-1-.76-1,.75L60.07,57l-1-.76h1.24l.39-1.21.38,1.21h1.23l-1,.75Z"/>
  <path class="cls-4" d="M49.9,46.69a.15.15,0,0,0,.11,0,.22.22,0,0,0,.07-.09.19.19,0,0,0,0-.15.28.28,0,0,0-.09-.1l-.2-.07-.13-.05-.14.39.15.06Z"/>
  <path class="cls-4" d="M35.42,44.39l-.16,0-.9,2.6h.16c18.37-2,28.61,7.66,29.8,8.86l.12.13.66-2.5L65,53.35C53.2,42.26,37.11,44.15,35.42,44.39ZM37.83,46a.81.81,0,0,1-1,0,.66.66,0,0,1-.19-.52,1,1,0,0,1,.06-.36.85.85,0,0,1,.14-.19,1,1,0,0,1,.19-.12,1.07,1.07,0,0,1,.32,0,.69.69,0,0,1,.52.19.71.71,0,0,1,.2.53A.69.69,0,0,1,37.83,46Zm24.4,7.1a.75.75,0,0,1,.2-.3.47.47,0,0,1,.19-.12.64.64,0,0,1,.23-.05.73.73,0,0,1,.31.07.74.74,0,0,1,.42.37.76.76,0,0,1,0,.57.75.75,0,0,1-1.35,0A.69.69,0,0,1,62.23,53.05Zm-1.27-1a.3.3,0,0,0,0,.24.35.35,0,0,0,.16.19.4.4,0,0,0,.22.09.18.18,0,0,0,.15-.07.09.09,0,0,0,0-.09.41.41,0,0,0-.06-.11l-.18-.21a1.15,1.15,0,0,1-.23-.32.34.34,0,0,1,.22-.45.53.53,0,0,1,.25,0,1,1,0,0,1,.29.14.8.8,0,0,1,.31.37.4.4,0,0,1-.05.35L61.77,52a.31.31,0,0,0,0-.19.39.39,0,0,0-.14-.15.37.37,0,0,0-.21-.09.12.12,0,0,0-.1,0,.11.11,0,0,0,0,.1.93.93,0,0,0,.2.25,1.87,1.87,0,0,1,.23.29.46.46,0,0,1,.06.22.32.32,0,0,1-.07.22.4.4,0,0,1-.19.15.66.66,0,0,1-.28,0,1.19,1.19,0,0,1-.32-.16.85.85,0,0,1-.32-.38.5.5,0,0,1,0-.41Zm-1.48-.68a.5.5,0,0,0,.39.28.15.15,0,0,0,.14-.07.08.08,0,0,0,0-.08.17.17,0,0,0-.06-.12,1.75,1.75,0,0,0-.18-.2,1.32,1.32,0,0,1-.23-.33.36.36,0,0,1,0-.32.37.37,0,0,1,.17-.13.53.53,0,0,1,.25,0,.9.9,0,0,1,.29.15.69.69,0,0,1,.31.36.4.4,0,0,1,0,.35l-.28-.18a.23.23,0,0,0,0-.18c0-.06-.06-.11-.14-.16a.37.37,0,0,0-.21-.09.09.09,0,0,0-.09.05.07.07,0,0,0,0,.09.82.82,0,0,0,.19.25,1.87,1.87,0,0,1,.23.29.38.38,0,0,1,.07.22.37.37,0,0,1-.08.22.36.36,0,0,1-.19.15.62.62,0,0,1-.27,0,1.06,1.06,0,0,1-.32-.16.74.74,0,0,1-.32-.38.5.5,0,0,1,0-.41l.28.16A.34.34,0,0,0,59.48,51.41ZM59.29,50l-.11.22-.78-.41-.15.29.72.38-.11.22-.72-.39-.19.35.8.43-.11.22-1.1-.58.69-1.3Zm-2.7-1.43.65.35a1.32,1.32,0,0,1,.33.22.4.4,0,0,1,.12.22.37.37,0,0,1-.27.42.63.63,0,0,1-.37,0,.77.77,0,0,1,.11.19,1.41,1.41,0,0,1,.06.31l.06.34-.37-.19-.07-.4a1.78,1.78,0,0,0-.07-.28.21.21,0,0,0-.06-.1l-.15-.1-.06,0-.29.54-.3-.17Zm-2.25-.2a.94.94,0,0,1,.27-.32.7.7,0,0,1,.38-.11.87.87,0,0,1,.36.09.73.73,0,0,1,.36.29.49.49,0,0,1,.06.37l-.3-.08a.33.33,0,0,0,0-.2.4.4,0,0,0-.18-.16.48.48,0,0,0-.35,0,.46.46,0,0,0-.26.27.53.53,0,0,0,0,.4.43.43,0,0,0,.23.25.42.42,0,0,0,.2,0h.19l.08-.17L55,48.83l.1-.22.61.28-.24.52a.69.69,0,0,1-.33,0,.88.88,0,0,1-.36-.1.94.94,0,0,1-.35-.26.69.69,0,0,1-.13-.36A1.09,1.09,0,0,1,54.34,48.32Zm-1.75-.76a.62.62,0,0,1,.14-.19.62.62,0,0,1,.19-.12.64.64,0,0,1,.32,0,.71.71,0,0,1,.52.19.73.73,0,0,1,.19.53.67.67,0,0,1-.71.71.7.7,0,0,1-.53-.19.69.69,0,0,1-.19-.52A.8.8,0,0,1,52.59,47.56Zm-1.52-1.2.7.24a1.72,1.72,0,0,1,.37.16.43.43,0,0,1,.15.2.49.49,0,0,1,0,.24.4.4,0,0,1-.2.22.63.63,0,0,1-.37,0,.7.7,0,0,1,.14.17c0,.06.07.16.12.29l.11.34-.4-.14-.14-.38a1.51,1.51,0,0,0-.11-.26.18.18,0,0,0-.08-.09.49.49,0,0,0-.16-.07l-.06,0-.2.57-.33-.11Zm-1.61-.5.45.15a1.5,1.5,0,0,1,.32.14.38.38,0,0,1,.15.2.45.45,0,0,1,0,.3.48.48,0,0,1-.12.2.35.35,0,0,1-.17.09.33.33,0,0,1-.17,0,1.3,1.3,0,0,1-.29-.08l-.18-.06-.18.52-.28-.1Zm-2.31-.24,1,.19,0,.2-.71-.14-.06.27.67.13,0,.2-.67-.13-.06.32.75.14,0,.21-1-.2Zm-2.76-.69.45,0L45,46l.38-1,.45.05-.18,1.45-.27,0,.13-1.14-.43,1.11-.28,0-.16-1.18-.14,1.14-.27,0Zm-1.88-.2,1.21.06,0,.25-.88,0v.32l.82,0v.25l-.82,0,0,.39.91,0v.24l-1.24,0Zm-2-.06h.61a1.24,1.24,0,0,1,.31,0,.6.6,0,0,1,.25.13.75.75,0,0,1,.15.24.92.92,0,0,1,.05.35.75.75,0,0,1-.05.31.68.68,0,0,1-.18.26.55.55,0,0,1-.23.11,1.12,1.12,0,0,1-.29,0h-.62Zm-.61.16a.32.32,0,0,1,.07.23.33.33,0,0,1-.11.27.62.62,0,0,1-.34.13.93.93,0,0,1,.18.12,2.07,2.07,0,0,1,.2.24l.21.29h-.42l-.25-.31a2.35,2.35,0,0,0-.18-.22.24.24,0,0,0-.11-.06l-.17,0H39v.61H38.6V44.65h.74a1.32,1.32,0,0,1,.4,0A.41.41,0,0,1,39.94,44.83Z"/>
  <path class="cls-4" d="M62.72,53.76a.42.42,0,0,0,.31,0,.57.57,0,0,0,.25-.29.57.57,0,0,0,0-.38.41.41,0,0,0-.23-.22.47.47,0,0,0-.33,0,.51.51,0,0,0-.23.29.52.52,0,0,0,0,.38A.39.39,0,0,0,62.72,53.76Z"/>
  <path class="cls-4" d="M37.31,45a.36.36,0,0,0-.29.11.6.6,0,0,0,0,.72.41.41,0,0,0,.58,0,.49.49,0,0,0,.12-.36.53.53,0,0,0-.11-.36A.41.41,0,0,0,37.31,45Z"/>
  <path class="cls-4" d="M39,44.89v.37h.26a1,1,0,0,0,.31,0,.15.15,0,0,0,.13-.16.13.13,0,0,0,0-.12.26.26,0,0,0-.13-.06H39Z"/>
  <path class="cls-4" d="M51.76,47.22l.11,0a.26.26,0,0,0,.07-.1.16.16,0,0,0,0-.12.22.22,0,0,0-.11-.1l-.24-.09-.25-.08-.12.35.24.08A1.51,1.51,0,0,0,51.76,47.22Z"/>
  <path class="cls-4" d="M53.24,48.39a.4.4,0,0,0,.29-.12.53.53,0,0,0,.11-.36.49.49,0,0,0-.11-.36.37.37,0,0,0-.29-.12.39.39,0,0,0-.3.12.6.6,0,0,0,0,.72A.39.39,0,0,0,53.24,48.39Z"/>
  <path class="cls-4" d="M57.12,49.48a.17.17,0,0,0,.12,0,.15.15,0,0,0,.08-.08.13.13,0,0,0,0-.12.19.19,0,0,0-.09-.11L57,49l-.24-.13-.17.33.23.12A1.36,1.36,0,0,0,57.12,49.48Z"/>
  <path class="cls-4" d="M41.46,45.82a.24.24,0,0,0,.09-.14,1,1,0,0,0,0-.27.88.88,0,0,0,0-.26.29.29,0,0,0-.25-.21l-.27,0h-.15v1h.45A.26.26,0,0,0,41.46,45.82Z"/>
  <polygon class="cls-5" points="54.23 51.81 53.92 50.82 53.6 51.81 52.59 51.81 53.4 52.43 53.09 53.42 53.91 52.81 54.73 53.43 54.41 52.43 55.24 51.82 54.23 51.81"/>
  <polygon class="cls-5" points="39.45 54.5 39.06 53.23 38.66 54.5 37.39 54.49 38.41 55.28 38.02 56.55 39.05 55.77 40.07 56.56 39.68 55.29 40.72 54.51 39.45 54.5"/>
  <polygon class="cls-5" points="52.33 60.21 51.95 59 51.56 60.21 50.33 60.2 51.32 60.96 50.94 62.18 51.94 61.43 52.94 62.19 52.56 60.97 53.56 60.22 52.33 60.21"/>
  <polygon class="cls-5" points="61.08 56.26 60.7 55.05 60.3 56.26 59.07 56.26 60.07 57.02 59.68 58.23 60.69 57.48 61.68 58.24 61.31 57.02 62.31 56.27 61.08 56.26"/>
  <polygon class="cls-5" points="43.86 57.3 42.83 57.3 42.51 56.27 42.19 57.3 41.16 57.29 41.99 57.93 41.67 58.96 42.51 58.33 43.34 58.97 43.02 57.93 43.86 57.3"/>
  <polygon class="cls-5" points="47.36 56 47.06 55.01 46.74 55.99 45.76 55.99 46.56 56.6 46.24 57.59 47.05 56.98 47.84 57.59 47.54 56.61 48.34 56 47.36 56"/>
  <polygon class="cls-5" points="46.05 60.95 45.56 59.39 45.06 60.94 43.46 60.94 44.76 61.9 44.25 63.45 45.55 62.5 46.83 63.47 46.34 61.91 47.64 60.95 46.05 60.95"/>
  <path class="cls-6" d="M37.31,44.71a1.07,1.07,0,0,0-.32,0,1,1,0,0,0-.19.12.85.85,0,0,0-.14.19,1,1,0,0,0-.06.36.66.66,0,0,0,.19.52.81.81,0,0,0,1,0,.69.69,0,0,0,.2-.52.71.71,0,0,0-.2-.53A.69.69,0,0,0,37.31,44.71Zm.29,1.07a.41.41,0,0,1-.58,0,.6.6,0,0,1,0-.72.36.36,0,0,1,.29-.11.41.41,0,0,1,.3.11.53.53,0,0,1,.11.36A.49.49,0,0,1,37.6,45.78Z"/>
  <path class="cls-6" d="M53.24,48.63a.67.67,0,0,0,.71-.71.73.73,0,0,0-.19-.53.71.71,0,0,0-.52-.19.64.64,0,0,0-.32,0,.62.62,0,0,0-.19.12.62.62,0,0,0-.14.19.8.8,0,0,0-.07.36.69.69,0,0,0,.19.52A.7.7,0,0,0,53.24,48.63Zm-.3-1.08a.39.39,0,0,1,.3-.12.37.37,0,0,1,.29.12.49.49,0,0,1,.11.36.53.53,0,0,1-.11.36.4.4,0,0,1-.29.12.39.39,0,0,1-.3-.12.6.6,0,0,1,0-.72Z"/>
  <path class="cls-6" d="M38.6,44.65V46.1H39v-.61H39l.17,0a.24.24,0,0,1,.11.06,2.35,2.35,0,0,1,.18.22l.25.31h.42l-.21-.29a2.07,2.07,0,0,0-.2-.24.93.93,0,0,0-.18-.12.62.62,0,0,0,.34-.13.33.33,0,0,0,.11-.27.32.32,0,0,0-.07-.23.41.41,0,0,0-.2-.14,1.32,1.32,0,0,0-.4,0Zm1,.31a.13.13,0,0,1,0,.12.15.15,0,0,1-.13.16,1,1,0,0,1-.31,0H39v-.37h.53A.26.26,0,0,1,39.61,45Z"/>
  <path class="cls-6" d="M51.14,47.28l.06,0a.49.49,0,0,1,.16.07.18.18,0,0,1,.08.09,1.51,1.51,0,0,1,.11.26l.14.38.4.14L52,47.9c0-.13-.09-.23-.12-.29a.7.7,0,0,0-.14-.17.63.63,0,0,0,.37,0,.4.4,0,0,0,.2-.22.49.49,0,0,0,0-.24.43.43,0,0,0-.15-.2,1.72,1.72,0,0,0-.37-.16l-.7-.24-.46,1.38.33.11Zm.19-.57.25.08.24.09a.22.22,0,0,1,.11.1.16.16,0,0,1,0,.12.26.26,0,0,1-.07.1l-.11,0a1.51,1.51,0,0,1-.31-.08l-.24-.08Z"/>
  <path class="cls-6" d="M56.5,49.43l.06,0,.15.1a.21.21,0,0,1,.06.1,1.78,1.78,0,0,1,.07.28l.07.4.37.19-.06-.34a1.41,1.41,0,0,0-.06-.31.77.77,0,0,0-.11-.19.63.63,0,0,0,.37,0,.37.37,0,0,0,.27-.42.4.4,0,0,0-.12-.22,1.32,1.32,0,0,0-.33-.22l-.65-.35-.68,1.28.3.17Zm.28-.53L57,49l.22.13a.19.19,0,0,1,.09.11.13.13,0,0,1,0,.12.15.15,0,0,1-.08.08.17.17,0,0,1-.12,0,1.36,1.36,0,0,1-.28-.13l-.23-.12Z"/>
  <path class="cls-6" d="M41.46,46.11a.55.55,0,0,0,.23-.11.68.68,0,0,0,.18-.26.75.75,0,0,0,.05-.31.92.92,0,0,0-.05-.35.75.75,0,0,0-.15-.24.6.6,0,0,0-.25-.13,1.24,1.24,0,0,0-.31,0h-.61v1.47h.62A1.12,1.12,0,0,0,41.46,46.11Zm-.58-.22v-1H41l.27,0a.29.29,0,0,1,.25.21.88.88,0,0,1,0,.26,1,1,0,0,1,0,.27.24.24,0,0,1-.09.14.26.26,0,0,1-.13.06h-.45Z"/>
  <polygon class="cls-6" points="43.69 46.01 42.78 45.96 42.8 45.57 43.62 45.61 43.63 45.36 42.81 45.32 42.82 45 43.7 45.04 43.72 44.79 42.51 44.73 42.44 46.2 43.68 46.25 43.69 46.01"/>
  <polygon class="cls-6" points="58.64 51.26 58.76 51.04 57.95 50.61 58.14 50.26 58.86 50.65 58.97 50.43 58.25 50.05 58.4 49.76 59.18 50.17 59.3 49.95 58.23 49.38 57.54 50.68 58.64 51.26"/>
  <polygon class="cls-6" points="47.97 46.8 47.22 46.66 47.28 46.34 47.95 46.47 47.99 46.27 47.32 46.14 47.38 45.87 48.09 46.01 48.13 45.81 47.15 45.62 46.91 46.81 47.93 47.01 47.97 46.8"/>
  <polygon class="cls-6" points="44.63 45.27 44.78 46.45 45.07 46.48 45.5 45.38 45.37 46.52 45.64 46.55 45.82 45.1 45.37 45.05 44.98 46.01 44.84 44.98 44.39 44.93 44.22 46.38 44.49 46.41 44.63 45.27"/>
  <path class="cls-6" d="M62.63,54a.67.67,0,0,0,.93-.39.76.76,0,0,0,0-.57.74.74,0,0,0-.42-.37.73.73,0,0,0-.31-.07.64.64,0,0,0-.23.05.47.47,0,0,0-.19.12.75.75,0,0,0-.2.3.69.69,0,0,0,0,.56A.71.71,0,0,0,62.63,54Zm-.11-.82a.51.51,0,0,1,.23-.29.47.47,0,0,1,.33,0,.41.41,0,0,1,.23.22.57.57,0,0,1,0,.38.57.57,0,0,1-.25.29.42.42,0,0,1-.31,0,.39.39,0,0,1-.23-.22A.52.52,0,0,1,62.52,53.16Z"/>
  <path class="cls-6" d="M60.63,52.34a.85.85,0,0,0,.32.38,1.19,1.19,0,0,0,.32.16.66.66,0,0,0,.28,0,.4.4,0,0,0,.19-.15.32.32,0,0,0,.07-.22.46.46,0,0,0-.06-.22,1.87,1.87,0,0,0-.23-.29.93.93,0,0,1-.2-.25.11.11,0,0,1,0-.1.12.12,0,0,1,.1,0,.37.37,0,0,1,.21.09.39.39,0,0,1,.14.15.31.31,0,0,1,0,.19l.27.18a.4.4,0,0,0,.05-.35.8.8,0,0,0-.31-.37,1,1,0,0,0-.29-.14.53.53,0,0,0-.25,0,.34.34,0,0,0-.22.45,1.15,1.15,0,0,0,.23.32l.18.21a.41.41,0,0,1,.06.11.09.09,0,0,1,0,.09.18.18,0,0,1-.15.07.4.4,0,0,1-.22-.09.35.35,0,0,1-.16-.19.3.3,0,0,1,0-.24l-.28-.16A.5.5,0,0,0,60.63,52.34Z"/>
  <path class="cls-6" d="M59.22,51a.5.5,0,0,0,0,.41.74.74,0,0,0,.32.38,1.06,1.06,0,0,0,.32.16.62.62,0,0,0,.27,0,.36.36,0,0,0,.19-.15.37.37,0,0,0,.08-.22.38.38,0,0,0-.07-.22,1.87,1.87,0,0,0-.23-.29.82.82,0,0,1-.19-.25.07.07,0,0,1,0-.09.09.09,0,0,1,.09-.05.37.37,0,0,1,.21.09c.08,0,.13.1.14.16a.23.23,0,0,1,0,.18l.28.18a.4.4,0,0,0,0-.35.69.69,0,0,0-.31-.36.9.9,0,0,0-.29-.15.53.53,0,0,0-.25,0,.37.37,0,0,0-.17.13.36.36,0,0,0,0,.32,1.32,1.32,0,0,0,.23.33,1.75,1.75,0,0,1,.18.2.17.17,0,0,1,.06.12.08.08,0,0,1,0,.08.15.15,0,0,1-.14.07.5.5,0,0,1-.39-.28.34.34,0,0,1,0-.24Z"/>
  <path class="cls-6" d="M54.74,49.33a.88.88,0,0,0,.36.1.69.69,0,0,0,.33,0l.24-.52-.61-.28-.1.22.33.15-.08.17H55a.42.42,0,0,1-.2,0,.43.43,0,0,1-.23-.25.53.53,0,0,1,0-.4.46.46,0,0,1,.26-.27.48.48,0,0,1,.35,0,.4.4,0,0,1,.18.16.33.33,0,0,1,0,.2l.3.08a.49.49,0,0,0-.06-.37.73.73,0,0,0-.36-.29.87.87,0,0,0-.36-.09.7.7,0,0,0-.38.11.94.94,0,0,0-.27.32,1.09,1.09,0,0,0-.08.39.69.69,0,0,0,.13.36A.94.94,0,0,0,54.74,49.33Z"/>
  <path class="cls-6" d="M49.44,46.82l.18.06a1.3,1.3,0,0,0,.29.08.33.33,0,0,0,.17,0,.35.35,0,0,0,.17-.09.48.48,0,0,0,.12-.2.45.45,0,0,0,0-.3.38.38,0,0,0-.15-.2,1.5,1.5,0,0,0-.32-.14l-.45-.15L49,47.24l.28.1Zm.22-.63.13.05.2.07a.28.28,0,0,1,.09.1.19.19,0,0,1,0,.15.22.22,0,0,1-.07.09.15.15,0,0,1-.11,0l-.23,0-.15-.06Z"/>
  <path class="cls-7" d="M50,90.77A40.77,40.77,0,1,1,90.77,50,40.82,40.82,0,0,1,50,90.77Zm0-78.54A37.77,37.77,0,1,0,87.77,50,37.81,37.81,0,0,0,50,12.23Z"/>
</svg>
