<?xml version="1.0"?>
<svg xmlns="http://www.w3.org/2000/svg" id="Templates" viewBox="0 0 100 100">
  <defs>
    <style>.cls-1{fill:#ff4d4d;}.cls-2{fill:#fff;}.cls-3{fill:#ececf3;}</style>
  </defs>
  <title>Babbel_GraphicsMaster_2017</title>
  <path class="cls-1" d="M31.73,84.76V60H12A39.35,39.35,0,0,0,31.73,84.76Z"/>
  <path class="cls-1" d="M88.35,41.56A39.27,39.27,0,0,0,50.27,10.73V41.56Z"/>
  <path class="cls-1" d="M31.73,15.24A39.29,39.29,0,0,0,11.65,41.56H31.73Z"/>
  <path class="cls-1" d="M50.27,89.27A39.29,39.29,0,0,0,88,60H50.27Z"/>
  <path class="cls-2" d="M31.73,84.76A39,39,0,0,0,50,89.27h.27V60H88a39.31,39.31,0,0,0,.38-18.48H50.27V10.73H50a39,39,0,0,0-18.27,4.51V41.56H11.65A39.31,39.31,0,0,0,12,60h19.7Z"/>
  <path class="cls-3" d="M50,90.77A40.77,40.77,0,1,1,90.77,50,40.82,40.82,0,0,1,50,90.77Zm0-78.54A37.77,37.77,0,1,0,87.77,50,37.81,37.81,0,0,0,50,12.23Z"/>
</svg>
