<?xml version="1.0"?>
<svg xmlns="http://www.w3.org/2000/svg" id="Templates" viewBox="0 0 100 100">
  <defs>
    <style>.cls-1{fill:#394149;}.cls-2{fill:#ffe650;}.cls-3{fill:#ff4d4d;}.cls-4{fill:#ececf3;}</style>
  </defs>
  <title>Babbel_GraphicsMaster_2017</title>
  <path class="cls-1" d="M50,10.73a39.28,39.28,0,0,0-36.39,24.5H86.39A39.28,39.28,0,0,0,50,10.73Z"/>
  <path class="cls-2" d="M50,89.27A39.27,39.27,0,0,0,86.13,65.41H13.87A39.27,39.27,0,0,0,50,89.27Z"/>
  <path class="cls-3" d="M13.61,35.23a39.35,39.35,0,0,0,.26,30.18H86.13a39.35,39.35,0,0,0,.26-30.18Z"/>
  <path class="cls-4" d="M50,90.77A40.77,40.77,0,1,1,90.77,50,40.82,40.82,0,0,1,50,90.77Zm0-78.54A37.77,37.77,0,1,0,87.77,50,37.81,37.81,0,0,0,50,12.23Z"/>
</svg>
