<?xml version="1.0"?>
<svg xmlns="http://www.w3.org/2000/svg" id="Templates" viewBox="0 0 100 100">
  <defs>
    <style>.cls-1{fill:#ff4d4d;}.cls-2{fill:#fff;}.cls-3{fill:#ececf3;}</style>
  </defs>
  <title>Babbel_GraphicsMaster_2017</title>
  <path class="cls-1" d="M50,10.73A39.27,39.27,0,0,0,10.73,50c0,.17,0,.34,0,.51H89.26c0-.17,0-.34,0-.51A39.27,39.27,0,0,0,50,10.73Z"/>
  <path class="cls-2" d="M50,89.27A39.26,39.26,0,0,0,89.26,50.51H10.74A39.26,39.26,0,0,0,50,89.27Z"/>
  <path class="cls-3" d="M50,90.77A40.77,40.77,0,1,1,90.77,50,40.82,40.82,0,0,1,50,90.77Zm0-78.54A37.77,37.77,0,1,0,87.77,50,37.81,37.81,0,0,0,50,12.23Z"/>
</svg>
