<?xml version="1.0"?>
<svg xmlns="http://www.w3.org/2000/svg" width="26" height="26" viewBox="0 0 26 26" fill="none">
<circle cx="13" cy="13" r="13" fill="#ECECF3"/>
<path fill-rule="evenodd" clip-rule="evenodd" d="M8 23.912C3.86894 22.016 1 17.843 1 13.0001C1 8.15706 3.86894 3.98415 8 2.08813V23.912Z" fill="#006847"/>
<path fill-rule="evenodd" clip-rule="evenodd" d="M8 23.9119V2.08808C9.52211 1.38949 11.2156 1 13 1C14.7844 1 16.4779 1.38949 18 2.08808V23.9119C16.4779 24.6105 14.7844 25 13 25C11.2156 25 9.52211 24.6105 8 23.9119Z" fill="white"/>
<path fill-rule="evenodd" clip-rule="evenodd" d="M18 23.912V2.08813C22.1311 3.98415 25 8.15706 25 13.0001C25 17.843 22.1311 22.016 18 23.912Z" fill="#CE1126"/>
<path d="M9 13.2C9 14.6423 9.77043 15.9513 10.9948 16.6618C11.377 16.8835 11.8665 16.7535 12.0883 16.3713C12.31 15.9891 12.18 15.4996 11.7978 15.2778C11.0619 14.8508 10.6 14.0661 10.6 13.2C10.6 12.7582 10.2418 12.4 9.8 12.4C9.35817 12.4 9 12.7582 9 13.2ZM15.1529 16.5717C16.2941 15.8418 17 14.5807 17 13.2C17 12.7582 16.6418 12.4 16.2 12.4C15.7582 12.4 15.4 12.7582 15.4 13.2C15.4 14.0292 14.977 14.785 14.2908 15.2238C13.9186 15.4619 13.8098 15.9566 14.0479 16.3288C14.2859 16.701 14.7806 16.8098 15.1529 16.5717Z" fill="#006847"/>
<path d="M13 14.8C13.8837 14.8 14.6 13.7255 14.6 12.4C14.6 11.0745 13.8837 10 13 10C12.1164 10 11.4 11.0745 11.4 12.4C11.4 13.7255 12.1164 14.8 13 14.8Z" fill="#9B7745"/>
</svg>
