<?xml version="1.0"?>
<svg xmlns="http://www.w3.org/2000/svg" id="Templates" viewBox="0 0 100 100">
  <defs>
    <style>.cls-1{fill:#ff4d4d;}.cls-2{fill:#fff;}.cls-3{fill:#353bd8;}.cls-4{fill:#ececf3;}</style>
  </defs>
  <title>Babbel_GraphicsMaster_2017</title>
  <path class="cls-1" d="M49.81,89.27H50A39.26,39.26,0,0,0,88.21,59H49.81Z"/>
  <path class="cls-1" d="M31.29,15.46a39.33,39.33,0,0,0-19.41,25.1H31.29Z"/>
  <path class="cls-1" d="M88.12,40.56A39.27,39.27,0,0,0,50,10.73h-.19V40.56Z"/>
  <path class="cls-1" d="M31.29,84.54V59H11.79A39.35,39.35,0,0,0,31.29,84.54Z"/>
  <path class="cls-2" d="M89,45.29a38.66,38.66,0,0,0-.86-4.73H49.81V10.73a38.89,38.89,0,0,0-4.74.32V45.29Z"/>
  <path class="cls-2" d="M36,13.3a39.64,39.64,0,0,0-4.73,2.16v25.1H11.88A38.66,38.66,0,0,0,11,45.29H36Z"/>
  <path class="cls-2" d="M45.07,89a38.89,38.89,0,0,0,4.74.32V59h38.4A36.64,36.64,0,0,0,89,54.32h-44Z"/>
  <path class="cls-2" d="M31.29,84.54A39.64,39.64,0,0,0,36,86.7V54.32H11A36.64,36.64,0,0,0,11.79,59h19.5Z"/>
  <path class="cls-3" d="M36,86.7a38.45,38.45,0,0,0,9,2.25V54.32H89a38.68,38.68,0,0,0,0-9H45.07V11.05a38.45,38.45,0,0,0-9,2.25v32H11a38.68,38.68,0,0,0,0,9H36Z"/>
  <path class="cls-4" d="M50,90.77A40.77,40.77,0,1,1,90.77,50,40.82,40.82,0,0,1,50,90.77Zm0-78.54A37.77,37.77,0,1,0,87.77,50,37.81,37.81,0,0,0,50,12.23Z"/>
</svg>
