<?xml version="1.0"?>
<svg xmlns="http://www.w3.org/2000/svg" id="Templates" viewBox="0 0 100 100">
  <defs>
    <style>.cls-1{fill:#353bd8;}.cls-2{fill:#fcc93a;}.cls-3{fill:#ececf3;}</style>
  </defs>
  <title>Babbel_GraphicsMaster_2017</title>
  <path class="cls-1" d="M31.61,84.7V60.08H12A39.34,39.34,0,0,0,31.61,84.7Z"/>
  <path class="cls-1" d="M31.61,15.3a39.33,39.33,0,0,0-20,26.3h20Z"/>
  <path class="cls-1" d="M50.11,89.27A39.28,39.28,0,0,0,88,60.08H50.11Z"/>
  <path class="cls-1" d="M88.36,41.6A39.27,39.27,0,0,0,50.11,10.73V41.6Z"/>
  <path class="cls-2" d="M31.61,84.7A39,39,0,0,0,50,89.27h.11V60.08H88a39.34,39.34,0,0,0,.4-18.48H50.11V10.73H50A39,39,0,0,0,31.61,15.3V41.6h-20A39.34,39.34,0,0,0,12,60.08H31.61Z"/>
  <path class="cls-3" d="M50,90.77A40.77,40.77,0,1,1,90.77,50,40.82,40.82,0,0,1,50,90.77Zm0-78.54A37.77,37.77,0,1,0,87.77,50,37.81,37.81,0,0,0,50,12.23Z"/>
</svg>
