<?xml version="1.0"?>
<svg xmlns="http://www.w3.org/2000/svg" id="Templates" viewBox="0 0 100 100">
  <defs>
    <style>.cls-1{fill:#ff4d4d;}.cls-2{fill:#fff;}.cls-3{fill:#ececf3;}</style>
  </defs>
  <title>Babbel_GraphicsMaster_2017</title>
  <path class="cls-1" d="M50,10.73A39.27,39.27,0,1,0,89.27,50,39.27,39.27,0,0,0,50,10.73ZM41,70.89A20.89,20.89,0,1,1,59.33,40.41a16.21,16.21,0,0,0-13.44-7.23,16.68,16.68,0,0,0,0,33.36,16.23,16.23,0,0,0,14-8.1A20.64,20.64,0,0,1,41,70.89Zm28.53-17.2-4.45,6.17,0-7.61L57.8,49.93,65,47.55,65,40l4.5,6.13,7.23-2.38-4.45,6.17L76.77,56Z"/>
  <polygon class="cls-2" points="76.73 43.7 69.5 46.08 65 39.95 65.03 47.55 57.8 49.93 65.05 52.25 65.07 59.86 69.52 53.69 76.77 56.01 72.28 49.87 76.73 43.7"/>
  <path class="cls-2" d="M45.89,66.54a16.68,16.68,0,0,1,0-33.36,16.21,16.21,0,0,1,13.44,7.23A20.71,20.71,0,1,0,41,70.89,20.64,20.64,0,0,0,59.87,58.44,16.23,16.23,0,0,1,45.89,66.54Z"/>
  <path class="cls-3" d="M50,90.77A40.77,40.77,0,1,1,90.77,50,40.82,40.82,0,0,1,50,90.77Zm0-78.54A37.77,37.77,0,1,0,87.77,50,37.81,37.81,0,0,0,50,12.23Z"/>
</svg>
